<svg xmlns="http://www.w3.org/2000/svg" viewBox="0 0 80 92" fill="none">
  <path fill="#6366f1" fill-rule="evenodd" d="
    M10 72 L10 7 Q10 3 14 3 L46 3 Q70 3 70 28 Q70 53 46 53 L28 53 L28 72 Z
    M28 16 L28 40 L45 40 Q57 40 57 28 Q57 16 45 16 Z
  "/>
  <path stroke="white" stroke-width="5" stroke-linecap="round" stroke-linejoin="round" fill="none" d="M34 28 L41 35 L54 19"/>
  <rect x="10" y="76" width="8" height="8" rx="1.5" fill="#2d3748"/>
  <rect x="20" y="76" width="8" height="8" rx="1.5" fill="#6366f1"/>
  <rect x="10" y="86" width="8" height="8" rx="1.5" fill="#2d3748"/>
  <rect x="20" y="86" width="8" height="8" rx="1.5" fill="#2d3748"/>
</svg>
