<?xml version="1.0" encoding="UTF-8"?>
<svg version="1.1" xmlns="http://www.w3.org/2000/svg" width="500" height="500">
<path d="M0 0 C0.91502289 -0.00335861 1.83004578 -0.00671722 2.77279663 -0.01017761 C5.77872094 -0.01962604 8.78458914 -0.02162787 11.79052734 -0.02270508 C13.89789858 -0.02592268 16.0052696 -0.02928713 18.11264038 -0.03279114 C22.52561968 -0.03876772 26.93857944 -0.04063263 31.3515625 -0.04003906 C36.97295593 -0.03993771 42.5942223 -0.05356912 48.21558571 -0.07081127 C52.5688025 -0.08199821 56.92198927 -0.0839562 61.27521896 -0.08342934 C63.34580293 -0.08460018 65.41638791 -0.08897094 67.48695755 -0.0967617 C88.49806232 -0.16839871 105.65546051 2.12079328 124.50146484 12.14526367 C124.50146484 12.80526367 124.50146484 13.46526367 124.50146484 14.14526367 C125.49146484 14.42370117 125.49146484 14.42370117 126.50146484 14.70776367 C135.50981191 19.02426331 144.95793455 28.95047976 150.50146484 37.14526367 C150.50146484 38.13526367 150.50146484 39.12526367 150.50146484 40.14526367 C151.16146484 40.14526367 151.82146484 40.14526367 152.50146484 40.14526367 C164.33337816 64.47380454 170.87515897 90.50899325 162.18164062 117.18334961 C157.02806096 132.04844875 149.49332927 145.6523823 137.50146484 156.14526367 C136.84146484 156.14526367 136.18146484 156.14526367 135.50146484 156.14526367 C135.50146484 156.80526367 135.50146484 157.46526367 135.50146484 158.14526367 C133.51115786 159.69560806 131.5302488 161.11843916 129.43896484 162.52026367 C128.87757813 162.90698242 128.31619141 163.29370117 127.73779297 163.69213867 C120.93110983 168.32846227 114.39098966 171.78980624 106.56396484 174.33276367 C105.8040625 174.59250977 105.04416016 174.85225586 104.26123047 175.11987305 C94.82322789 178.23900797 86.65085327 178.14526367 76.50146484 178.14526367 C76.50146484 202.23526367 76.50146484 226.32526367 76.50146484 251.14526367 C63.96146484 251.14526367 51.42146484 251.14526367 38.50146484 251.14526367 C38.47891687 236.68993221 38.46055153 222.23461234 38.44965267 207.77926731 C38.44448995 201.06784499 38.43744772 194.35643435 38.42602539 187.64501953 C38.4151992 181.17412631 38.40918858 174.70324525 38.4065876 168.23234367 C38.40473287 165.75747422 38.40111134 163.28260547 38.39573479 160.80774117 C38.38852792 157.35455994 38.38747375 153.90142966 38.38793945 150.44824219 C38.38434418 149.41390549 38.3807489 148.37956879 38.37704468 147.31388855 C38.37841934 146.37854279 38.37979401 145.44319702 38.38121033 144.47950745 C38.38028853 143.66187707 38.37936674 142.84424669 38.37841702 142.00183964 C38.50146484 140.14526367 38.50146484 140.14526367 39.50146484 139.14526367 C40.88557039 139.03868526 42.27493101 138.99908266 43.66308594 138.98754883 C44.99114761 138.97215561 44.99114761 138.97215561 46.34603882 138.95645142 C47.31256378 138.94915009 48.27908875 138.94184875 49.27490234 138.93432617 C51.31787865 138.90622445 53.36084728 138.87755984 55.40380859 138.84838867 C58.62694817 138.80736068 61.84994947 138.77048237 65.07324219 138.74389648 C68.18243335 138.71601998 71.29096959 138.67011306 74.39990234 138.62182617 C75.81932632 138.61694687 75.81932632 138.61694687 77.26742554 138.61196899 C90.902675 138.36560747 103.41197271 133.84382694 113.39990234 124.43823242 C117.12208704 120.37703834 119.90468413 115.98899971 122.50146484 111.14526367 C123.15501953 109.96963867 123.15501953 109.96963867 123.82177734 108.77026367 C128.38757166 98.80853062 128.62484076 84.31746561 125.36083984 73.89135742 C120.08747715 61.0271279 111.21229618 49.70380731 98.18896484 44.14526367 C91.36196867 41.52019705 85.32179337 40.9902813 78.08056641 40.96826172 C77.13844299 40.96169052 76.19631958 40.95511932 75.22564697 40.948349 C72.11446038 40.92867316 69.00332191 40.91696649 65.89208984 40.90698242 C64.82671745 40.90290689 63.76134506 40.89883137 62.66368866 40.89463234 C57.02530615 40.87379658 51.3869478 40.85948372 45.74853516 40.85009766 C39.93699279 40.83903482 34.12583345 40.80462885 28.31442642 40.76492596 C23.83444525 40.73873565 19.35455508 40.73040369 14.87450409 40.72681618 C12.73277955 40.721957 10.5910589 40.71036218 8.44940948 40.69177818 C5.4459474 40.66733436 2.44347327 40.66836145 -0.56005859 40.67529297 C-1.43621826 40.66248291 -2.31237793 40.64967285 -3.21508789 40.63647461 C-12.05102571 40.71042022 -19.26490835 43.91163686 -25.49853516 50.14526367 C-30.58210502 56.74425141 -30.06880956 63.45413079 -30.03759766 71.50463867 C-30.04751502 72.89993829 -30.05946022 74.29522483 -30.07333374 75.69049072 C-30.10556424 79.34553649 -30.11607724 83.00028267 -30.12017822 86.65545654 C-30.12896632 92.51903174 -30.16441403 98.38236288 -30.21235275 104.24573517 C-30.2249334 106.29044259 -30.22418118 108.33483938 -30.22207642 110.37957764 C-30.2325148 112.23730804 -30.2325148 112.23730804 -30.24316406 114.13256836 C-30.24442291 115.22398132 -30.24568176 116.31539429 -30.24697876 117.43988037 C-30.49853516 120.14526367 -30.49853516 120.14526367 -32.49853516 123.14526367 C-35.25310972 123.42452753 -37.77992976 123.51731672 -40.53369141 123.47338867 C-41.32754745 123.4715155 -42.1214035 123.46964233 -42.9393158 123.4677124 C-44.61803383 123.46098635 -46.29673604 123.44706082 -47.9753418 123.42651367 C-50.55418343 123.39534648 -53.13241446 123.38554311 -55.71142578 123.37963867 C-57.33968849 123.37046948 -58.96794495 123.36009397 -60.59619141 123.34838867 C-61.37221207 123.34413879 -62.14823273 123.33988892 -62.94776917 123.33551025 C-68.38138082 123.26241801 -68.38138082 123.26241801 -69.49853516 122.14526367 C-69.60843111 120.15896948 -69.64765886 118.1687391 -69.65966797 116.17944336 C-69.66927551 114.90010925 -69.67888306 113.62077515 -69.68878174 112.30267334 C-69.69363446 110.89083026 -69.69791212 109.47898511 -69.70166016 108.06713867 C-69.70741493 106.61997476 -69.71317262 105.17281086 -69.71893311 103.72564697 C-69.7294639 100.67899216 -69.73529036 97.63236383 -69.73876953 94.58569336 C-69.74420503 90.71602262 -69.76811596 86.84671261 -69.79674149 82.97715378 C-69.81555833 79.9793402 -69.82058384 76.98160935 -69.82210541 73.98374176 C-69.82509879 72.55984818 -69.83301256 71.13595487 -69.84629059 69.71212006 C-70.00845385 50.95634927 -65.86259243 35.02330552 -52.61181641 21.23120117 C-51.91443359 20.5428418 -51.21705078 19.85448242 -50.49853516 19.14526367 C-49.84240234 18.46592773 -49.18626953 17.7865918 -48.51025391 17.08666992 C-35.29005408 4.32853534 -17.85621535 -0.00955491 0 0 Z " fill="#5958EE" transform="translate(215.49853515625,123.854736328125)"/>
<path d="M0 0 C6.08392488 2.36597079 10.24482046 7.94664078 14.25 12.875 C12.62159701 16.27719909 10.76714616 19.04321057 8.25 21.875 C7.59 21.875 6.93 21.875 6.25 21.875 C6.25 22.535 6.25 23.195 6.25 23.875 C5.59 23.875 4.93 23.875 4.25 23.875 C4.25 24.535 4.25 25.195 4.25 25.875 C3.59 25.875 2.93 25.875 2.25 25.875 C2.25 26.535 2.25 27.195 2.25 27.875 C0.81997681 29.27636719 0.81997681 29.27636719 -1.18115234 30.921875 C-6.03470356 35.05158211 -10.42475506 39.54678865 -14.8515625 44.125 C-16.57461343 45.8850034 -18.29859906 47.64409212 -20.0234375 49.40234375 C-22.71595331 52.15064509 -25.40266416 54.90367003 -28.07421875 57.67236328 C-30.67154387 60.36021561 -33.29038662 63.02539688 -35.9140625 65.6875 C-36.71107574 66.5237793 -37.50808899 67.36005859 -38.32925415 68.22167969 C-43.95194944 73.87236726 -43.95194944 73.87236726 -48.30224609 73.88671875 C-49.11000488 73.55285156 -49.91776367 73.21898437 -50.75 72.875 C-50.75 72.215 -50.75 71.555 -50.75 70.875 C-51.348125 70.606875 -51.94625 70.33875 -52.5625 70.0625 C-54.74847854 68.87582594 -56.16332594 67.77900887 -57.75 65.875 C-57.75 65.215 -57.75 64.555 -57.75 63.875 C-58.32145752 63.62806396 -58.89291504 63.38112793 -59.48168945 63.12670898 C-62.11672409 61.67263272 -63.91199271 59.97201802 -66.04296875 57.84765625 C-66.83767578 57.05552734 -67.63238281 56.26339844 -68.45117188 55.44726562 C-69.27166016 54.61904297 -70.09214844 53.79082031 -70.9375 52.9375 C-72.18563477 51.7009668 -72.18563477 51.7009668 -73.45898438 50.43945312 C-74.24982422 49.64603516 -75.04066406 48.85261719 -75.85546875 48.03515625 C-76.57887451 47.30949463 -77.30228027 46.58383301 -78.04760742 45.83618164 C-79.75 43.875 -79.75 43.875 -80.75 40.875 C-80.09 39.885 -79.43 38.895 -78.75 37.875 C-78.09 37.875 -77.43 37.875 -76.75 37.875 C-76.48832031 37.28332031 -76.22664062 36.69164062 -75.95703125 36.08203125 C-74.68320807 33.75287236 -73.41021872 32.32526196 -71.4375 30.5625 C-70.86386719 30.03011719 -70.29023438 29.49773437 -69.69921875 28.94921875 C-67.75 27.875 -67.75 27.875 -65.4609375 27.76171875 C-60.52929902 29.78695934 -57.36776672 34.15507068 -53.83398438 38.03515625 C-53.23779297 38.66550781 -52.64160156 39.29585937 -52.02734375 39.9453125 C-51.49359131 40.53070801 -50.95983887 41.11610352 -50.40991211 41.71923828 C-48.8321473 43.08527416 -48.8321473 43.08527416 -46.90788269 42.68856812 C-44.11187607 41.63441358 -42.66201481 40.14018233 -40.56396484 38.01367188 C-39.74987152 37.19612427 -38.9357782 36.37857666 -38.09701538 35.53625488 C-37.22710968 34.64772827 -36.35720398 33.75920166 -35.4609375 32.84375 C-34.5613028 31.93749878 -33.66166809 31.03124756 -32.73477173 30.09753418 C-30.34643175 27.68973467 -27.96452045 25.27593673 -25.58587646 22.85858154 C-22.22897084 19.44950258 -18.86192445 16.05046096 -15.49380493 12.65246582 C-13.70106539 10.84269203 -11.91141408 9.02985307 -10.12509155 7.21374512 C-9.31730255 6.39619751 -8.50951355 5.5786499 -7.67724609 4.73632812 C-6.96539154 4.01320435 -6.25353699 3.29008057 -5.52011108 2.54504395 C-2.62391811 -0.18742272 -2.62391811 -0.18742272 0 0 Z " fill="#303646" transform="translate(292.75,178.125)"/>
<path d="M0 0 C2.74285469 -0.2917727 5.25657539 -0.39605798 8 -0.36328125 C9.18722656 -0.36402901 9.18722656 -0.36402901 10.3984375 -0.36479187 C12.07294219 -0.36244989 13.74745029 -0.35271402 15.421875 -0.33618164 C17.9899024 -0.31259275 20.55689186 -0.31561887 23.125 -0.32226562 C24.75000621 -0.31668888 26.37500804 -0.30957902 28 -0.30078125 C29.15628906 -0.30214836 29.15628906 -0.30214836 30.3359375 -0.30354309 C35.76897453 -0.23102547 35.76897453 -0.23102547 38 2 C38.21184648 4.5457356 38.30398808 6.98000638 38.30078125 9.52734375 C38.30506638 10.27206436 38.3093515 11.01678497 38.31376648 11.78407288 C38.31951282 13.36018863 38.3200078 14.9363309 38.31567383 16.51245117 C38.31251665 18.92477692 38.33595756 21.33587312 38.36132812 23.74804688 C38.36360137 25.27864428 38.36430449 26.809245 38.36328125 28.33984375 C38.372491 29.06179428 38.38170074 29.78374481 38.39118958 30.52757263 C38.36567395 33.28864431 38.2689629 35.49547442 36.95605469 37.95825195 C33.86927967 39.60219466 30.74847455 39.38641942 27.33984375 39.328125 C26.22132774 39.32531525 26.22132774 39.32531525 25.08021545 39.32244873 C23.50582398 39.31573258 21.93144907 39.30182661 20.35717773 39.28125 C17.94303947 39.25007154 15.5295541 39.24027618 13.11523438 39.234375 C11.58592951 39.22520568 10.05663131 39.21483013 8.52734375 39.203125 C7.80336899 39.19887512 7.07939423 39.19462524 6.33348083 39.19024658 C1.23444672 39.11722336 1.23444672 39.11722336 -1 38 C-2.37561578 30.96288089 -2.18385686 23.8905486 -2.1875 16.75 C-2.19974609 15.47125 -2.21199219 14.1925 -2.22460938 12.875 C-2.22654297 11.65296875 -2.22847656 10.4309375 -2.23046875 9.171875 C-2.23457764 8.0590918 -2.23868652 6.94630859 -2.24291992 5.79980469 C-2 3 -2 3 0 0 Z " fill="#313746" transform="translate(147,263)"/>
<path d="M0 0 C2.75457457 -0.27926386 5.2813946 -0.37205304 8.03515625 -0.328125 C9.22594032 -0.32531525 9.22594032 -0.32531525 10.44078064 -0.32244873 C12.11949867 -0.31572268 13.79820088 -0.30179715 15.47680664 -0.28125 C18.05564828 -0.25008281 20.63387931 -0.24027944 23.21289062 -0.234375 C24.84115334 -0.22520581 26.4694098 -0.2148303 28.09765625 -0.203125 C28.87367691 -0.19887512 29.64969757 -0.19462524 30.44923401 -0.19024658 C35.88284566 -0.11715434 35.88284566 -0.11715434 37 1 C37.10099488 3.72724279 37.13970529 6.42862523 37.1328125 9.15625 C37.13376923 9.97371704 37.13472595 10.79118408 37.13571167 11.63342285 C37.13639345 13.36515378 37.13453929 15.09688724 37.13037109 16.82861328 C37.12502279 19.48866482 37.13031612 22.1485475 37.13671875 24.80859375 C37.13605797 26.48697954 37.1347768 28.16536523 37.1328125 29.84375 C37.13483673 30.64478149 37.13686096 31.44581299 37.13894653 32.27111816 C37.11495079 37.88504921 37.11495079 37.88504921 36 39 C33.35713726 39.11336626 30.74138544 39.16417761 28.09765625 39.16796875 C27.30475693 39.17129715 26.5118576 39.17462555 25.69493103 39.17805481 C24.01448142 39.18312726 22.33402171 39.18546304 20.65356445 39.18530273 C18.07681741 39.18748786 15.50049924 39.20563609 12.92382812 39.22460938 C11.2942723 39.22754345 9.66471444 39.22952815 8.03515625 39.23046875 C6.87416161 39.24124702 6.87416161 39.24124702 5.68971252 39.25224304 C0.22882253 39.22882253 0.22882253 39.22882253 -2 37 C-2.19962411 34.4540393 -2.27986548 32.01924064 -2.265625 29.47265625 C-2.26753845 28.72793564 -2.2694519 27.98321503 -2.27142334 27.21592712 C-2.27278514 25.63979759 -2.26908903 24.06365685 -2.26074219 22.48754883 C-2.25005726 20.07542666 -2.26062946 17.66405182 -2.2734375 15.25195312 C-2.27211561 13.72135252 -2.2695526 12.19075238 -2.265625 10.66015625 C-2.26967346 9.93820572 -2.27372192 9.21625519 -2.27789307 8.47242737 C-2.24321486 4.76482331 -2.11189101 3.16783652 0 0 Z " fill="#2F3545" transform="translate(201,317)"/>
<path d="M0 0 C2.74252444 -0.30417228 5.25552627 -0.42005798 8 -0.3984375 C8.79148438 -0.40130768 9.58296875 -0.40417786 10.3984375 -0.40713501 C12.07292394 -0.40917777 13.74743412 -0.40363307 15.421875 -0.39111328 C17.99012429 -0.37506172 20.55679986 -0.39095383 23.125 -0.41015625 C24.75000349 -0.40817385 26.37500599 -0.40433025 28 -0.3984375 C28.77085937 -0.40451019 29.54171875 -0.41058289 30.3359375 -0.4168396 C32.5 -0.38818359 32.5 -0.38818359 36 0 C38.40491105 3.60736658 38.28982863 6.23961275 38.265625 10.40625 C38.26849518 11.48791443 38.26849518 11.48791443 38.27142334 12.59143066 C38.27278301 14.11450551 38.26910177 15.63759202 38.26074219 17.16064453 C38.25003914 19.49147583 38.26064438 21.82153642 38.2734375 24.15234375 C38.27211587 25.6328142 38.26955339 27.11328417 38.265625 28.59375 C38.26967346 29.2906897 38.27372192 29.98762939 38.27789307 30.70568848 C38.24247329 34.36195961 38.08630382 35.87054428 36 39 C31.94665275 39.586184 27.8806797 39.47225735 23.78857422 39.44604492 C21.77075446 39.43758699 19.75581714 39.46619105 17.73828125 39.49804688 C16.45824219 39.49740234 15.17820313 39.49675781 13.859375 39.49609375 C12.68858398 39.49794678 11.51779297 39.4997998 10.31152344 39.50170898 C6.2976082 38.89358485 4.14999997 37.51937248 1 35 C-3.38583163 28.42125256 -2.10666293 18.6797121 -2.1875 10.9375 C-2.20055176 10.19935059 -2.21360352 9.46120117 -2.22705078 8.70068359 C-2.23317839 4.91644952 -2.15156652 3.22734977 0 0 Z " fill="#333948" transform="translate(147,317)"/>
<path d="M0 0 C0.77399643 0.00718552 1.54799286 0.01437103 2.34544373 0.02177429 C3.5362278 0.02246162 3.5362278 0.02246162 4.75106812 0.02316284 C6.42975865 0.02618539 8.10844637 0.03407179 9.78709412 0.0464325 C12.36588906 0.06469419 14.94432524 0.06694217 17.5231781 0.06669617 C19.15143643 0.07161108 20.77969232 0.07743929 22.40794373 0.08427429 C23.57197472 0.08594353 23.57197472 0.08594353 24.75952148 0.08764648 C30.1942374 0.13619297 30.1942374 0.13619297 31.31028748 1.25224304 C31.42365373 3.89510578 31.47446508 6.5108576 31.47825623 9.15458679 C31.48324883 10.34393578 31.48324883 10.34393578 31.48834229 11.55731201 C31.49341474 13.23776162 31.49575051 14.91822133 31.49559021 16.59867859 C31.49777533 19.17542563 31.51592356 21.7517438 31.53489685 24.32841492 C31.53783093 25.95797074 31.53981563 27.5875286 31.54075623 29.21708679 C31.54794174 29.99108322 31.55512726 30.76507965 31.56253052 31.56253052 C31.53911 37.02342052 31.53911 37.02342052 29.31028748 39.25224304 C26.30101013 39.5110321 26.30101013 39.5110321 22.47434998 39.51786804 C21.79858917 39.51978149 21.12282837 39.52169495 20.42658997 39.52366638 C18.9958916 39.52502803 17.56518088 39.52133297 16.13450623 39.51298523 C13.95062747 39.50231797 11.76757752 39.51286335 9.58372498 39.52568054 C8.19309817 39.52435829 6.80247187 39.52179454 5.41184998 39.51786804 C3.51426941 39.51448425 3.51426941 39.51448425 1.57835388 39.5110321 C-1.5207085 39.265626 -3.2062776 39.07424613 -5.68971252 37.25224304 C-8.21599471 33.80885841 -7.94792679 30.30651625 -7.95533752 26.15068054 C-7.95725098 25.47300629 -7.95916443 24.79533203 -7.96113586 24.09712219 C-7.96249283 22.6699842 -7.95883055 21.24283366 -7.95045471 19.8157196 C-7.93971435 17.62761421 -7.95038295 15.44032358 -7.96315002 13.25224304 C-7.96182899 11.86422039 -7.95926777 10.47619825 -7.95533752 9.08818054 C-7.95308167 7.82538269 -7.95082581 6.56258484 -7.94850159 5.26152039 C-7.47784531 -0.21141292 -4.87811553 0.02092113 0 0 Z " fill="#5C5BED" transform="translate(206.68971252441406,262.7477569580078)"/>
<path d="M0 0 C0.66 0 1.32 0 2 0 C0.125 5.875 0.125 5.875 -1 7 C-1.11312917 8.95257829 -1.15683851 10.90920911 -1.17358398 12.86499023 C-1.18707382 14.11976669 -1.20056366 15.37454315 -1.21446228 16.66734314 C-1.21952223 17.34206099 -1.22458218 18.01677883 -1.22979546 18.71194267 C-1.24616043 20.81717194 -1.26939554 22.92221931 -1.29469299 25.02735901 C-1.36559654 31.0139973 -1.42563983 37.00070998 -1.47680664 42.98754883 C-1.5085541 46.64573049 -1.54981895 50.30370405 -1.59700203 53.96171761 C-1.61304854 55.35836108 -1.62535784 56.75505254 -1.63390923 58.15176201 C-1.64602857 60.10312218 -1.67120737 62.05438817 -1.69702148 64.00561523 C-1.71248268 65.67321144 -1.71248268 65.67321144 -1.72825623 67.37449646 C-2 70 -2 70 -4 72 C-4.0928245 63.49834928 -4.16382753 54.99691155 -4.20724869 46.49487877 C-4.22809247 42.54669627 -4.25635049 38.59886137 -4.30175781 34.65087891 C-4.34533152 30.83830999 -4.36916124 27.02607468 -4.37950897 23.21327591 C-4.38687981 21.76123429 -4.40127356 20.30921021 -4.42292023 18.85731125 C-4.45210976 16.81772667 -4.45594986 14.77950711 -4.45410156 12.73974609 C-4.46298401 11.58058685 -4.47186646 10.42142761 -4.48101807 9.22714233 C-3.89261124 5.27953059 -2.50036053 3.07535392 0 0 Z " fill="#B9B9EC" transform="translate(187,174)"/>
<path d="M0 0 C0.33 0 0.66 0 1 0 C0.95359375 0.89203125 0.9071875 1.7840625 0.859375 2.703125 C0.82328125 3.87359375 0.7871875 5.0440625 0.75 6.25 C0.70359375 7.41015625 0.6571875 8.5703125 0.609375 9.765625 C1.06964494 13.57666013 2.05148444 14.65511755 5 17 C3.02 17.99 3.02 17.99 1 19 C1.144375 20.13179687 1.28875 21.26359375 1.4375 22.4296875 C1.62506489 23.91145012 1.81256134 25.39322141 2 26.875 C2.09539062 27.62136719 2.19078125 28.36773437 2.2890625 29.13671875 C3 34.7734375 3 34.7734375 3 37 C2.01 37.495 2.01 37.495 1 38 C0.67 46.91 0.34 55.82 0 65 C-0.33 65 -0.66 65 -1 65 C-1.02321781 57.41098751 -1.04096311 49.82197873 -1.05181217 42.23293877 C-1.05702039 38.70866512 -1.06408045 35.18441586 -1.07543945 31.66015625 C-1.08842978 27.60416435 -1.09324526 23.54819788 -1.09765625 19.4921875 C-1.10281754 18.23260223 -1.10797882 16.97301697 -1.11329651 15.67526245 C-1.11337204 14.49449127 -1.11344757 13.31372009 -1.11352539 12.09716797 C-1.11685631 10.54496048 -1.11685631 10.54496048 -1.12025452 8.96139526 C-0.99600122 5.90152577 -0.5659392 3.00697796 0 0 Z " fill="#595DDB" transform="translate(147,174)"/>
<path d="M0 0 C-1.70275016 3.40550032 -4.54680321 4.77180114 -8 6 C-12.55095235 6.52129091 -17.05074238 6.42178565 -21.625 6.3125 C-22.90141357 6.29703125 -24.17782715 6.2815625 -25.49291992 6.265625 C-36.33987259 6.10272727 -47.17269675 5.66265463 -58 5 C-58 4.67 -58 4.34 -58 4 C-56.72471436 3.98541748 -55.44942871 3.97083496 -54.13549805 3.95581055 C-49.35853438 3.89739771 -44.5820211 3.82017071 -39.80541992 3.73754883 C-37.74657557 3.70450027 -35.68764498 3.67640735 -33.62866211 3.65356445 C-19.05031436 3.7106574 -19.05031436 3.7106574 -4.90161133 0.63208008 C-3 0 -3 0 0 0 Z " fill="#6967D4" transform="translate(315,259)"/>
<path d="M0 0 C1.47088185 0.04235142 2.94146488 0.09601937 4.41162109 0.15869141 C5.18565277 0.18371735 5.95968445 0.20874329 6.75717163 0.23452759 C9.23357392 0.31681306 11.70918867 0.41336787 14.18505859 0.51025391 C15.86210958 0.56848484 17.53919304 0.62578831 19.21630859 0.68212891 C23.33134628 0.82240425 27.44573368 0.97548043 31.56005859 1.13525391 C31.23005859 1.79525391 30.90005859 2.45525391 30.56005859 3.13525391 C19.67005859 3.13525391 8.78005859 3.13525391 -2.43994141 3.13525391 C-2.76994141 13.03525391 -3.09994141 22.93525391 -3.43994141 33.13525391 C-4.09994141 33.13525391 -4.75994141 33.13525391 -5.43994141 33.13525391 C-5.4893229 28.75701474 -5.52565181 24.37892244 -5.54980469 20.00048828 C-5.55987183 18.51055071 -5.57352658 17.02063293 -5.59082031 15.53076172 C-5.61503793 13.39106363 -5.62641704 11.25162638 -5.63525391 9.11181641 C-5.65096436 7.17943115 -5.65096436 7.17943115 -5.66699219 5.20800781 C-5.335876 0.72690201 -4.46002149 0.17536209 0 0 Z " fill="#9594E1" transform="translate(204.43994140625,262.86474609375)"/>
<path d="M0 0 C0.99 0.495 0.99 0.495 2 1 C2 1.66 2 2.32 2 3 C13.22 2.67 24.44 2.34 36 2 C36 2.99 36 3.98 36 5 C24.12 5 12.24 5 0 5 C0 3.35 0 1.7 0 0 Z " fill="#6F6DD2" transform="translate(147,242)"/>
<path d="M0 0 C0.33 0 0.66 0 1 0 C1.02465098 4.96622349 1.04283649 9.93241166 1.05493164 14.89868164 C1.0599719 16.58944316 1.06680405 18.28020029 1.07543945 19.97094727 C1.08751857 22.39600707 1.09323123 24.82100944 1.09765625 27.24609375 C1.10281754 28.00651474 1.10797882 28.76693573 1.11329651 29.55039978 C1.11349238 31.3673257 1.06197277 33.18413127 1 35 C0 36 0 36 -3.41821289 36.11352539 C-4.93636988 36.11336628 -6.45453229 36.10767226 -7.97265625 36.09765625 C-8.77029892 36.0962413 -9.56794159 36.09482635 -10.38975525 36.09336853 C-12.94737435 36.08775316 -15.50490718 36.07519812 -18.0625 36.0625 C-19.79231645 36.05748698 -21.52213426 36.05292373 -23.25195312 36.04882812 C-27.50133553 36.03777875 -31.75065312 36.02050386 -36 36 C-36 35.67 -36 35.34 -36 35 C-24.78 34.67 -13.56 34.34 -2 34 C-0.52793987 31.05587973 -0.76192808 28.03714085 -0.68359375 24.8046875 C-0.66281265 24.09724396 -0.64203156 23.38980042 -0.62062073 22.66091919 C-0.55518922 20.39904575 -0.49627026 18.13705538 -0.4375 15.875 C-0.39430867 14.34243578 -0.35069418 12.80988343 -0.30664062 11.27734375 C-0.19951445 7.51834927 -0.0982291 3.75923708 0 0 Z " fill="#8D9099" transform="translate(237,320)"/>
<path d="M0 0 C0.33 0.66 0.66 1.32 1 2 C-0.0625 4.5625 -0.0625 4.5625 -2 7 C-5.1875 7.8125 -5.1875 7.8125 -8 8 C-8.33 8.99 -8.66 9.98 -9 11 C-9.66 11.66 -10.32 12.32 -11 13 C-11.804375 13.86625 -12.60875 14.7325 -13.4375 15.625 C-16 18 -16 18 -19 18 C-15.24629944 9.12761686 -7.86470105 4.94209284 0 0 Z " fill="#7574E4" transform="translate(178,133)"/>
<path d="M0 0 C2.31 0 4.62 0 7 0 C1.47641838 4.29611904 -4.12886207 7.43408251 -11 9 C-11.66 8.67 -12.32 8.34 -13 8 C-12.67 7.21625 -12.34 6.4325 -12 5.625 C-10.88133489 3.15667503 -10.88133489 3.15667503 -11 1 C-7.50765756 0.90021879 -4.40562852 1.22157062 -1 2 C-0.67 1.34 -0.34 0.68 0 0 Z " fill="#6260E8" transform="translate(333,289)"/>
<path d="M0 0 C0.33 0 0.66 0 1 0 C0.95359375 0.89203125 0.9071875 1.7840625 0.859375 2.703125 C0.82328125 3.87359375 0.7871875 5.0440625 0.75 6.25 C0.70359375 7.41015625 0.6571875 8.5703125 0.609375 9.765625 C1.06964494 13.57666013 2.05148444 14.65511755 5 17 C4.03320312 17.24363281 4.03320312 17.24363281 3.046875 17.4921875 C0.5663746 18.95214403 0.5663746 18.95214403 0.390625 22.6953125 C0.32414708 24.17112237 0.27806121 25.64796017 0.25 27.125 C0.22035156 27.87910156 0.19070312 28.63320312 0.16015625 29.41015625 C0.08942068 31.27285953 0.04245017 33.13643755 0 35 C-0.33 35 -0.66 35 -1 35 C-1.02485364 30.97982745 -1.04293238 26.95968512 -1.05493164 22.93945312 C-1.05993786 21.5738853 -1.06674482 20.20832276 -1.07543945 18.84277344 C-1.08766831 16.87176882 -1.09272866 14.9007239 -1.09765625 12.9296875 C-1.10289307 11.74616699 -1.10812988 10.56264648 -1.11352539 9.34326172 C-1.00470177 6.13846468 -0.60517483 3.14523388 0 0 Z " fill="#6767DC" transform="translate(147,174)"/>
<path d="M0 0 C0.33 0 0.66 0 1 0 C2.32719886 6.96779403 2.08825381 13.92988911 2 21 C1.34 21 0.68 21 0 21 C0 22.65 0 24.3 0 26 C-0.99 26 -1.98 26 -3 26 C-2.68289063 24.8759375 -2.36578125 23.751875 -2.0390625 22.59375 C-0.86570187 17.90030749 -0.56340828 13.32011178 -0.375 8.5 C-0.33632813 7.67757812 -0.29765625 6.85515625 -0.2578125 6.0078125 C-0.16468308 4.0055299 -0.08131015 2.00279738 0 0 Z " fill="#8B89E2" transform="translate(343,206)"/>
<path d="M0 0 C6.10819022 3.05409511 10.3536679 7.02782124 15 12 C14.34 12.66 13.68 13.32 13 14 C13 13.34 13 12.68 13 12 C11.02 11.34 9.04 10.68 7 10 C7 8.68 7 7.36 7 6 C6.236875 5.896875 5.47375 5.79375 4.6875 5.6875 C1.82940576 4.95635961 0.84257115 4.23048087 -1 2 C-0.67 1.34 -0.34 0.68 0 0 Z " fill="#8586E4" transform="translate(341,138)"/>
<path d="M0 0 C0.66 0 1.32 0 2 0 C0.22106242 5.59094667 0.22106242 5.59094667 -1.04443359 7.93261719 C-2.09381645 10.20297335 -2.30744187 11.84031026 -2.4140625 14.328125 C-2.45273438 15.12734375 -2.49140625 15.9265625 -2.53125 16.75 C-2.5621875 17.575 -2.593125 18.4 -2.625 19.25 C-2.66367188 20.09046875 -2.70234375 20.9309375 -2.7421875 21.796875 C-2.83615836 23.86423382 -2.91915564 25.93208627 -3 28 C-3.33 28 -3.66 28 -4 28 C-4.11681812 24.45861382 -4.187455 20.9177276 -4.25 17.375 C-4.28351563 16.37597656 -4.31703125 15.37695312 -4.3515625 14.34765625 C-4.43197785 8.27629703 -4.19685791 4.55436802 0 0 Z " fill="#5A5AD2" transform="translate(187,174)"/>
<path d="M0 0 C0.99 0 1.98 0 3 0 C4.25 6.625 4.25 6.625 2 10 C1.34 10 0.68 10 0 10 C-0.33 11.32 -0.66 12.64 -1 14 C-0.67 9.38 -0.34 4.76 0 0 Z " fill="#686AEC" transform="translate(147,232)"/>
<path d="M0 0 C0.33 0.66 0.66 1.32 1 2 C-0.3984375 4.6015625 -0.3984375 4.6015625 -2.375 7.625 C-3.02210938 8.62789063 -3.66921875 9.63078125 -4.3359375 10.6640625 C-4.88507813 11.43492187 -5.43421875 12.20578125 -6 13 C-6.33 13 -6.66 13 -7 13 C-7.33 10.69 -7.66 8.38 -8 6 C-7.01 6 -6.02 6 -5 6 C-3.80362755 4.99185552 -3.80362755 4.99185552 -3.625 3 C-3.41875 2.34 -3.2125 1.68 -3 1 C-2.01 0.67 -1.02 0.34 0 0 Z " fill="#7B79E4" transform="translate(370,255)"/>
<path d="M0 0 C0.125 2.375 0.125 2.375 0 5 C-0.66 5.66 -1.32 6.32 -2 7 C-4.26274788 6.64644564 -5.95088852 6.02455574 -8 5 C-8.33 5.66 -8.66 6.32 -9 7 C-9 6.01 -9 5.02 -9 4 C-7.68872739 3.3309224 -6.3759455 2.66480194 -5.0625 2 C-4.33160156 1.62875 -3.60070312 1.2575 -2.84765625 0.875 C-1 0 -1 0 0 0 Z " fill="#292E3E" transform="translate(227,208)"/>
<path d="M0 0 C2.5625 2.1875 2.5625 2.1875 5 5 C4.8125 7.8125 4.8125 7.8125 4 10 C2.68 10 1.36 10 0 10 C0 6.7 0 3.4 0 0 Z " fill="#726EEB" transform="translate(360,155)"/>
<path d="M0 0 C1.32 0 2.64 0 4 0 C4 0.66 4 1.32 4 2 C3.54625 2.37125 3.0925 2.7425 2.625 3.125 C0.09050386 6.04941863 -0.19954485 9.24401816 -1 13 C-1.33 13 -1.66 13 -2 13 C-2.05416188 11.39620659 -2.09286638 9.79188594 -2.125 8.1875 C-2.14820313 7.29417969 -2.17140625 6.40085937 -2.1953125 5.48046875 C-2 3 -2 3 0 0 Z " fill="#7B7F86" transform="translate(147,263)"/>
<path d="M0 0 C1.65 0.33 3.3 0.66 5 1 C5 4 5 4 3.6875 5.38671875 C2.125 6.59114583 0.5625 7.79557292 -1 9 C-1.33 8.01 -1.66 7.02 -2 6 C-1.34 5.67 -0.68 5.34 0 5 C0 3.35 0 1.7 0 0 Z " fill="#575B65" transform="translate(249,242)"/>
<path d="M0 0 C0.66 0 1.32 0 2 0 C2.70133599 1.57725347 3.385583 3.16211333 4.0625 4.75 C4.44535156 5.63171875 4.82820313 6.5134375 5.22265625 7.421875 C6.04600008 10.15256309 5.9773992 11.36901347 5 14 C1.84888788 11.47047712 1.41201983 9.23243734 0.8125 5.3125 C0.65394531 4.31863281 0.49539063 3.32476562 0.33203125 2.30078125 C0.22246094 1.54152344 0.11289062 0.78226563 0 0 Z " fill="#7776DD" transform="translate(371,174)"/>
<path d="M0 0 C8.57142857 3.14285714 8.57142857 3.14285714 12 5 C11.67 5.66 11.34 6.32 11 7 C7.90584243 6.57343918 4.94119871 6.07001562 2 5 C0.4375 2.375 0.4375 2.375 0 0 Z " fill="#7A79E3" transform="translate(328,131)"/>
<path d="M0 0 C0.33 0 0.66 0 1 0 C0.54775239 5.91492272 -0.1582605 11.35199888 -2 17 C-2.33 17 -2.66 17 -3 17 C-3.0272415 15.58344207 -3.04650467 14.16672955 -3.0625 12.75 C-3.07410156 11.96109375 -3.08570313 11.1721875 -3.09765625 10.359375 C-3.00385306 8.09308998 -2.63241063 6.1711105 -2 4 C-1.34 4 -0.68 4 0 4 C0 2.68 0 1.36 0 0 Z " fill="#8683E3" transform="translate(379,226)"/>
<path d="M0 0 C-0.90492188 0.39832031 -0.90492188 0.39832031 -1.828125 0.8046875 C-2.62734375 1.15789062 -3.4265625 1.51109375 -4.25 1.875 C-5.03890625 2.22304687 -5.8278125 2.57109375 -6.640625 2.9296875 C-8.78868608 3.90413905 -10.89829202 4.92986429 -13 6 C-13.33 5.01 -13.66 4.02 -14 3 C-13.34 3 -12.68 3 -12 3 C-12 2.34 -12 1.68 -12 1 C-3.96428571 -1.27678571 -3.96428571 -1.27678571 0 0 Z " fill="#8986E7" transform="translate(205,165)"/>
<path d="M0 0 C2.31 0 4.62 0 7 0 C-0.71428571 6 -0.71428571 6 -4 6 C-4 5.01 -4 4.02 -4 3 C-2.68 2.34 -1.36 1.68 0 1 C0 0.67 0 0.34 0 0 Z " fill="#7B79E2" transform="translate(333,289)"/>
<path d="M0 0 C1 2 1 2 0.875 3.9375 C-0.3582873 6.84453436 -2.25745971 7.59356908 -5 9 C-5.33 8.01 -5.66 7.02 -6 6 C-4.02 4.02 -2.04 2.04 0 0 Z " fill="#424754" transform="translate(286,182)"/>
<path d="M0 0 C1.32 0 2.64 0 4 0 C2.75023244 3.65316671 2.32901247 4.78065836 -1 7 C-1.04254356 5.00045254 -1.04080783 2.99958364 -1 1 C-0.67 0.67 -0.34 0.34 0 0 Z " fill="#7C7BE5" transform="translate(358,268)"/>
<path d="M0 0 C0.66 0.33 1.32 0.66 2 1 C1.01 2.485 1.01 2.485 0 4 C0.33 4.99 0.66 5.98 1 7 C0.01 7.495 0.01 7.495 -1 8 C-3.125 7.0625 -3.125 7.0625 -5 6 C-3.35 4.02 -1.7 2.04 0 0 Z " fill="#3E434F" transform="translate(278,190)"/>
<path d="M0 0 C0.53625 0.226875 1.0725 0.45375 1.625 0.6875 C1.295 1.6775 0.965 2.6675 0.625 3.6875 C-2.75 4.3125 -2.75 4.3125 -6.375 4.6875 C-7.035 4.0275 -7.695 3.3675 -8.375 2.6875 C-2.95961538 -0.38942308 -2.95961538 -0.38942308 0 0 Z " fill="#7977E6" transform="translate(187.375,129.3125)"/>
<path d="M0 0 C3.125 -0.1875 3.125 -0.1875 6 0 C5.21625 0.598125 4.4325 1.19625 3.625 1.8125 C0.85425677 3.91085249 0.85425677 3.91085249 -1 7 C-1.625 5.1875 -1.625 5.1875 -2 3 C-1.34 2.01 -0.68 1.02 0 0 Z " fill="#494C57" transform="translate(147,317)"/>
<path d="M0 0 C0.99 0.33 1.98 0.66 3 1 C3 1.66 3 2.32 3 3 C2.34 3 1.68 3 1 3 C0.67 3.99 0.34 4.98 0 6 C-0.66 6 -1.32 6 -2 6 C-2 5.34 -2 4.68 -2 4 C-2.66 3.67 -3.32 3.34 -4 3 C-2.1875 1.4375 -2.1875 1.4375 0 0 Z " fill="#716DE9" transform="translate(327,250)"/>
<path d="M0 0 C0.66 0 1.32 0 2 0 C0.84414715 3.91211733 -0.35534962 6.8745041 -3 10 C-3.75 8.375 -3.75 8.375 -4 6 C-2.1875 2.75 -2.1875 2.75 0 0 Z " fill="#7978DD" transform="translate(187,174)"/>
<path d="M0 0 C7.625 1.75 7.625 1.75 11 4 C3.57142857 4.28571429 3.57142857 4.28571429 0 2 C0 1.34 0 0.68 0 0 Z " fill="#8889E1" transform="translate(317,127)"/>
<path d="M0 0 C1.83832664 3.10217621 2.47446226 5.39408679 2 9 C1.01 9.66 0.02 10.32 -1 11 C-1.125 3.375 -1.125 3.375 0 0 Z " fill="#867DED" transform="translate(255,364)"/>
<path d="M0 0 C0.33 0 0.66 0 1 0 C1 4.95 1 9.9 1 15 C0.01 14.67 -0.98 14.34 -2 14 C-1.67 13.34 -1.34 12.68 -1 12 C-0.77141886 9.9625237 -0.58975722 7.91959697 -0.4375 5.875 C-0.35371094 4.77929688 -0.26992187 3.68359375 -0.18359375 2.5546875 C-0.12300781 1.71164062 -0.06242188 0.86859375 0 0 Z " fill="#697078" transform="translate(237,340)"/>
<path d="M0 0 C-1.39332574 3.36720387 -2.9789286 4.9859524 -6 7 C-6.33 6.01 -6.66 5.02 -7 4 C-2.25 0 -2.25 0 0 0 Z " fill="#414550" transform="translate(265,233)"/>
<path d="M0 0 C1.32 0.33 2.64 0.66 4 1 C5.75 4.0625 5.75 4.0625 7 7 C6.34 7.66 5.68 8.32 5 9 C3.35 6.03 1.7 3.06 0 0 Z " fill="#8887E0" transform="translate(332,181)"/>
<path d="M0 0 C7.50769231 0.61538462 7.50769231 0.61538462 10 2.5625 C10.33 3.036875 10.66 3.51125 11 4 C10.01 4.495 10.01 4.495 9 5 C6.8359375 4.22265625 6.8359375 4.22265625 4.375 3.0625 C3.55773437 2.68222656 2.74046875 2.30195313 1.8984375 1.91015625 C1.27195312 1.60980469 0.64546875 1.30945313 0 1 C0 0.67 0 0.34 0 0 Z " fill="#8986E1" transform="translate(311,166)"/>
<path d="M0 0 C1.32 1.32 2.64 2.64 4 4 C3.34 4 2.68 4 2 4 C2.33 4.99 2.66 5.98 3 7 C1.02 7.99 1.02 7.99 -1 9 C-0.67 6.03 -0.34 3.06 0 0 Z " fill="#6E6EE9" transform="translate(356,151)"/>
<path d="M0 0 C4.29 0.33 8.58 0.66 13 1 C13 1.33 13 1.66 13 2 C8.38 2.33 3.76 2.66 -1 3 C-0.67 2.01 -0.34 1.02 0 0 Z " fill="#6463DB" transform="translate(201,263)"/>
<path d="M0 0 C0.625 1.8125 0.625 1.8125 1 4 C0.01 5.485 0.01 5.485 -1 7 C-2.32 6.67 -3.64 6.34 -5 6 C-3.35 4.02 -1.7 2.04 0 0 Z " fill="#8B89E0" transform="translate(333,243)"/>
<path d="M0 0 C1.65 0 3.3 0 5 0 C4.1875 1.9375 4.1875 1.9375 3 4 C2.01 4.33 1.02 4.66 0 5 C0 3.35 0 1.7 0 0 Z " fill="#7A77E1" transform="translate(344,281)"/>
<path d="M0 0 C2.88575819 0.39803561 3.82189513 0.79009069 5.75 3.0625 C6.1625 3.701875 6.575 4.34125 7 5 C6.01 5.495 6.01 5.495 5 6 C5 5.34 5 4.68 5 4 C3.35 3.67 1.7 3.34 0 3 C0 2.01 0 1.02 0 0 Z " fill="#6E6DDC" transform="translate(349,146)"/>
</svg>
